<svg width="12" height="16" viewBox="0 0 12 16" fill="none" xmlns="http://www.w3.org/2000/svg">
<path d="M8.33217 6.16371C8.13842 6.16371 8.00926 6.03463 8.00926 5.841L8.13842 3.32385C8.13842 3.13022 8.00926 3.00114 7.81551 3.00114L5.39364 3.03341C5.19989 3.03341 5.07073 2.90433 5.07073 2.7107L5.00614 0.451718C5.00614 0.25809 4.84469 0.129006 4.68323 0.129006L2.39053 0.0321924C2.19678 0.0321924 1.90616 0.0321924 1.7447 0.0321924L0.322832 -8.01036e-05C0.129082 -8.01205e-05 -8.35708e-05 0.129004 -8.35877e-05 0.322632L0.0322086 2.74297C0.0322085 2.9366 0.193666 3.06568 0.355124 3.06568L1.7447 3.03341C1.93845 3.03341 2.06761 3.16249 2.06761 3.35612L2.00303 5.64737C2.00303 5.841 2.1322 6.03463 2.39053 6.00236L5.1676 6.03463C5.42593 6.00236 5.5551 6.19598 5.5551 6.38961L5.42593 8.71314C5.42593 8.90676 5.29677 9.03585 5.00614 9.03585L2.35824 9.10039C2.0999 9.10039 2.00303 9.29402 2.00303 9.45537L2.03532 11.6175C2.03532 11.8112 1.90615 11.9403 1.71241 11.9403L0.451997 12.0048C0.258248 12.0048 0.129082 12.1662 0.129082 12.3275L0.0967894 14.7478C0.0967894 14.9415 0.258246 15.0706 0.419704 15.0706L1.7447 15.0383C1.93845 15.0383 2.22907 15.0383 2.39053 15.0383L4.65094 15.0383C4.84469 15.0383 4.97385 14.9092 5.00614 14.7156L5.13531 12.5211C5.13531 12.3275 5.29677 12.1984 5.49052 12.1662L7.62176 12.0048C7.81551 12.0048 7.94467 11.8434 7.94467 11.6498L8.00926 9.35856C8.00926 9.16493 8.17071 9.03585 8.33217 9.03585L10.8509 9.1972C11.0447 9.1972 11.1738 9.06812 11.1738 8.87449L11.1415 6.35734C11.1415 6.16371 10.9801 6.03463 10.8186 6.03463L8.33217 6.16371Z" fill="white"/>
</svg>
