<svg width="16" height="17" viewBox="0 0 16 17" fill="none" xmlns="http://www.w3.org/2000/svg">
<g clip-path="url(#clip0)">
<path d="M7.67177 16.3572C5.31452 16.2295 0.954321 16.0782 0.00480824 15.066C-0.0471551 14.2289 0.259901 13.2688 0.566958 12.5216C1.37003 10.5446 3.46746 10.0244 5.22477 9.29602C5.7444 9.63655 6.11287 10.294 6.76477 10.5115C8.63546 11.2777 9.51883 10.4311 10.7423 9.30548C11.1911 9.36696 11.6257 9.68857 12.0698 9.83992C14.479 10.8047 15.2301 11.4905 15.8347 13.7796C15.9103 14.2431 16.1276 15.0897 15.8773 15.2221C13.2366 16.3241 10.4306 16.2815 7.67177 16.3146C7.67177 16.3288 7.67177 16.343 7.67177 16.3572Z" fill="#112B4C"/>
<path d="M7.91748 0.357147C9.11736 0.357147 10.5582 0.683484 10.8699 2.00775C11.4274 2.77394 11.4699 3.3131 11.4888 4.11712C11.4652 4.73669 11.9564 5.22383 11.8053 5.86705C11.7533 6.68999 11.2384 7.30483 10.8322 8.00007C10.2417 9.31961 9.31104 10.3696 7.87496 10.3412C6.48612 10.2655 5.62164 9.07367 5.13507 7.91494C4.70047 7.22443 4.20446 6.67107 4.19501 5.82448C4.10525 5.30897 4.33673 4.99682 4.45482 4.52386C4.57292 1.82803 5.16814 0.655107 7.88441 0.352417C7.89858 0.357147 7.9033 0.357147 7.91748 0.357147Z" fill="#112B4C"/>
</g>
<defs>
<clipPath id="clip0">
<rect width="16" height="16" fill="white" transform="translate(0 0.357178)"/>
</clipPath>
</defs>
</svg>
