<svg width="21" height="21" viewBox="0 0 21 21" fill="none" xmlns="http://www.w3.org/2000/svg">
<path d="M16.6348 1.08594L20.5004 4.95158" stroke="#0100FE"/>
<path d="M1 16.5485L4.86564 20.4141" stroke="#0100FE"/>
<path d="M20.4141 16.6344L16.5484 20.5" stroke="#0100FE"/>
<path d="M4.95117 1L1.08553 4.86564" stroke="#0100FE"/>
<path d="M14.6586 10.5353L10.793 6.75554L18.5242 6.75554L14.6586 10.5353Z" fill="white"/>
<path d="M6.92733 10.5353L10.793 14.315L3.06169 14.315L6.92733 10.5353Z" fill="white"/>
<path d="M6.92716 10.5353L3.06152 6.75554L10.7928 6.75554L6.92716 10.5353Z" fill="white"/>
<path d="M14.6588 10.5353L18.5244 14.315L10.7931 14.315L14.6588 10.5353Z" fill="white"/>
<path d="M10.793 6.75557L14.6586 2.97583L14.6586 10.5353L10.793 6.75557Z" fill="white"/>
<path d="M10.793 14.315L6.92733 18.0947L6.92733 10.5353L10.793 14.315Z" fill="white"/>
<path d="M10.793 6.75554L6.92733 10.5353L6.92733 2.97581L10.793 6.75554Z" fill="white"/>
<path d="M10.793 14.315L14.6586 10.5353L14.6586 18.0947L10.793 14.315Z" fill="white"/>
<rect x="3.06152" y="9.67627" width="1.37445" height="1.37445" transform="rotate(45 3.06152 9.67627)" fill="#0100FE"/>
<rect x="10.7344" y="9.67627" width="1.37445" height="1.37445" transform="rotate(45 10.7344 9.67627)" fill="#0100FE"/>
<rect x="18.4658" y="9.67627" width="1.37445" height="1.37445" transform="rotate(45 18.4658 9.67627)" fill="#0100FE"/>
<rect x="11.7354" y="2.94629" width="1.37445" height="1.37445" transform="rotate(135 11.7354 2.94629)" fill="#0100FE"/>
<rect x="11.7354" y="18.35" width="1.37445" height="1.37445" transform="rotate(135 11.7354 18.35)" fill="#0100FE"/>
</svg>
