<svg width="163" height="97" viewBox="0 0 163 97" fill="none" xmlns="http://www.w3.org/2000/svg">
<path d="M48.0265 76.8514C47.0806 74.0095 44.3058 72.9876 42.067 72.9876C40.9319 72.9876 39.8283 72.9876 38.6931 72.9876H35.8553C34.7201 72.9876 33.9318 73.6901 33.6165 74.9355C33.3958 75.8296 33.2066 76.7237 33.0174 77.6178L32.9859 77.7136C32.5129 80.1404 32.166 82.7907 32.0084 85.5688C31.9138 87.2931 31.8823 89.0174 31.9138 90.7418C31.9453 91.572 31.9769 92.4022 32.0399 93.2325C32.0399 93.3602 32.0399 93.5198 32.0399 93.7114C32.0399 94.3501 32.0399 95.1484 32.4814 95.6273C32.8282 96.0425 33.3327 96.1063 33.7742 96.1063C33.8688 96.1063 33.9634 96.1063 34.0579 96.1063C34.1525 96.1063 34.2156 96.1063 34.3102 96.1063H38.2832C38.6931 96.1063 39.04 95.9786 39.2292 95.7231C39.5445 95.3719 39.6075 94.7971 39.4499 93.9669L39.103 91.9232C39.0715 91.7955 39.04 91.6678 39.04 91.5081C38.8823 90.7418 38.7246 89.8796 38.9454 89.209C39.04 88.9216 39.3868 88.762 39.7021 88.5704C39.7967 88.5065 39.8913 88.4746 39.9859 88.4107C40.4589 88.1233 40.9319 87.8679 41.4048 87.5805C43.013 86.6545 44.8418 85.5049 46.3869 83.9083C48.1526 82.0244 48.8463 79.2144 48.0265 76.8514ZM38.3147 83.0781C38.0625 83.0781 37.9679 83.0142 37.9679 82.4395C37.9679 80.2681 38.2201 78.927 38.7877 78.3522C39.1661 77.969 39.6706 77.9371 40.2382 77.9371C40.8688 77.9371 42.3193 78.0967 42.3193 79.5017C42.3193 80.7152 39.2607 83.0781 38.3147 83.0781ZM28.13 90.3586C28.1615 91.5081 28.1615 92.7215 28.1615 93.903C28.1615 93.9669 28.1615 94.0308 28.1615 94.0946C28.1615 94.4459 28.1615 94.8929 27.9408 95.2442C27.5624 95.8189 26.9318 95.8509 26.4903 95.8828C25.4498 95.9467 24.3777 96.0105 23.2426 96.0425C23.0534 96.0425 22.8327 96.0425 22.6435 96.0744C22.1705 96.0744 21.729 96.1063 21.2561 96.1063C20.4047 96.1063 19.3011 96.0744 18.229 95.7231C16.9362 95.308 15.9587 94.4459 15.4542 93.2005C14.7605 91.5401 14.8867 89.3687 15.8011 87.4208C16.9678 84.9621 19.1119 83.8764 22.7065 83.8764C22.7696 83.8764 22.8642 83.8764 22.8327 83.6529C22.8327 83.2378 22.3597 82.4075 21.4768 82.4075C21.0669 82.4075 20.6254 82.5672 20.1525 82.9185C20.0579 82.9823 19.9633 83.0462 19.8687 83.142C19.175 83.6529 18.2606 84.3235 17.3146 84.1638C16.6209 84.0361 16.0533 83.7168 15.738 83.2378C15.3912 82.7269 15.2966 82.0882 15.4227 81.3219C15.9272 78.448 18.9543 77.4581 21.3822 77.4581C22.6435 77.4581 23.8732 77.7136 24.7876 78.1925C28.193 79.9807 28.1615 84.2277 28.0985 87.6763C28.0985 88.2511 28.0985 88.7939 28.0985 89.3048C28.13 89.5922 28.13 89.9754 28.13 90.3586ZM23.1795 88.9216C23.1795 88.5385 23.1795 88.1553 23.0218 87.9956C22.9273 87.8998 22.8011 87.8679 22.6119 87.8679C21.6345 87.8679 20.4993 88.6981 20.4993 89.8157C20.4993 90.8056 21.3822 91.3165 22.2336 91.3165C23.1164 91.3165 23.148 90.9972 23.148 90.0073L23.1795 88.9216ZM62.3419 91.6359C62.1527 90.9014 61.9635 90.2628 61.7113 89.5283C61.4275 88.6662 60.9545 88.2191 60.3239 88.2191C59.6302 88.2191 58.8734 88.762 58.2113 89.241C58.0221 89.4006 57.8013 89.5283 57.6437 89.6561C57.013 90.0393 56.5085 90.2628 56.0671 90.2628C55.7202 90.2628 55.468 90.1351 55.2473 89.8796C54.1752 88.6343 54.6166 85.026 54.7743 83.9403C55.0581 82.0244 55.6256 80.1404 56.2563 78.1925C56.2878 78.0648 56.3509 77.9371 56.4139 77.7455C56.8238 76.5959 57.6121 74.4884 56.9184 73.4985C56.6662 73.1473 56.3193 72.9876 55.8148 72.9876H51.8103C50.1076 72.9876 49.5085 76.6279 49.2247 78.3841C49.1932 78.5119 49.1932 78.6396 49.1616 78.7354C48.7517 81.0983 48.4364 83.7168 48.2472 86.5587C48.1842 87.4528 47.8688 92.0829 48.3418 94.1904C48.7833 96.266 51.5581 96.266 52.4725 96.266C52.9454 96.266 53.3869 96.234 53.7968 96.234C54.0806 96.234 54.3328 96.2021 54.522 96.2021C55.3103 96.2021 55.941 96.1702 56.5401 96.1383C57.1076 96.1063 57.7067 96.0744 58.432 96.0744H58.6212H59.3149C60.1662 96.0744 61.1437 96.0425 61.7743 95.9467C62.1842 95.8828 62.468 95.6593 62.6888 95.34C63.2248 94.4778 62.7833 93.0089 62.5311 92.051C62.405 91.8913 62.3734 91.7636 62.3419 91.6359ZM14.3191 91.6359C14.3506 91.7636 14.3822 91.8913 14.4452 92.051C14.729 93.0089 15.1389 94.4778 14.6029 95.34C14.4137 95.6593 14.0984 95.8509 13.6885 95.9467C13.0578 96.0744 12.1119 96.0744 11.229 96.0744H10.5353H10.3461C9.62086 96.0744 9.02176 96.1063 8.45419 96.1383C7.85509 96.1702 7.22445 96.2021 6.43616 96.2021C6.24697 96.2021 5.99472 96.2021 5.71093 96.234C5.30102 96.266 4.85958 96.266 4.3866 96.266C3.47218 96.266 0.697388 96.266 0.255944 94.1904C-0.217032 92.0829 0.0982856 87.4528 0.161349 86.5587C0.382071 83.7168 0.697388 81.0983 1.07577 78.7354C1.1073 78.6396 1.1073 78.5119 1.13883 78.3841C1.42262 76.6279 1.99019 72.9876 3.72443 72.9876H7.72896C8.23347 72.9876 8.61185 73.1473 8.83257 73.4985C9.52627 74.4884 8.73798 76.6279 8.32806 77.7455C8.265 77.9371 8.20194 78.0967 8.17041 78.1925C7.53977 80.1404 6.9722 82.0244 6.68842 83.9403C6.53076 85.026 6.12084 88.6343 7.16139 89.8796C7.6659 90.4544 8.45419 90.3905 9.5578 89.6561C9.74699 89.5283 9.93618 89.4006 10.1254 89.241C10.7875 88.762 11.5443 88.2191 12.238 88.2191C12.8686 88.2191 13.3416 88.6662 13.6254 89.5283C13.9407 90.2628 14.1614 90.9014 14.3191 91.6359ZM154.32 78.7354C154.446 78.7354 154.572 78.7354 154.698 78.7673C155.297 78.8312 155.865 79.1824 156.496 79.5337C157.284 79.9807 158.072 80.4597 158.955 80.4597C159.27 80.4597 159.554 80.3958 159.838 80.3C160.91 79.9169 161.194 79.3101 161.572 78.3203C162.045 77.0749 162.991 74.5204 161.32 73.4666C160.784 73.1154 159.87 72.9557 158.545 72.9557H158.388C156.716 72.9876 155.077 72.9557 153.406 72.9557C152.46 72.9557 151.482 72.9557 150.536 72.9557C147.824 72.9557 147.446 76.085 147.162 78.3522C147.131 78.7034 147.068 79.0547 147.036 79.3421C146.342 83.7167 146.122 88.0595 146.374 92.2745C146.374 92.4022 146.374 92.5619 146.405 92.6896C146.469 93.9349 146.532 95.6273 148.14 95.9786C148.487 96.0425 148.896 96.0744 149.369 96.0744C149.685 96.0744 150.032 96.0744 150.347 96.0425C150.662 96.0425 150.946 96.0105 151.23 96.0105H154.541C155.77 96.0105 157.252 96.0105 158.766 95.9786C159.649 95.9786 160.216 95.7551 160.563 95.34C160.879 94.9568 160.973 94.4139 160.879 93.7114C160.847 93.3921 160.784 93.0728 160.752 92.7535C160.532 91.0611 160.311 89.4645 159.46 88.8259C159.144 88.5704 158.766 88.4746 158.388 88.4746C157.568 88.4746 156.748 88.9855 155.96 89.4645C155.392 89.8157 154.824 90.167 154.415 90.1989C153.721 90.2947 153.216 90.167 152.901 89.7838C152.649 89.4964 152.491 89.0174 152.491 88.4107C152.491 87.2931 153.279 86.3671 154.194 86.3671C154.383 86.3671 154.572 86.399 154.73 86.4629C155.802 86.878 156.559 87.0696 157.126 87.0696C158.451 87.0696 158.766 86.0797 159.176 84.6747C159.239 84.4831 159.302 84.2596 159.365 84.0361C159.775 82.7269 159.775 81.8328 159.333 81.258C158.64 80.3 156.906 80.2042 153.752 81.0025C153.532 81.0664 153.311 81.1303 153.09 81.1941C152.775 81.2899 152.46 81.3857 152.27 81.3857C152.207 81.3857 152.176 81.3857 152.176 81.3538C152.176 81.3538 152.113 81.2899 152.176 81.0025C152.176 79.6295 153.027 78.7354 154.32 78.7354ZM127.896 77.2346C127.865 77.043 127.802 76.8195 127.77 76.564C127.518 75.0632 127.171 72.9876 125.216 72.9876H125.153C124.995 72.9876 124.806 72.9876 124.586 72.9557C124.333 72.9557 124.018 72.9238 123.734 72.9238C123.072 72.9238 121.054 72.9238 121.054 74.5842C121.054 75.0313 121.306 76.3405 121.59 77.8732C121.748 78.6715 121.905 79.5017 122 80.2042C120.833 78.1287 119.604 76.0212 117.964 74.2968C116.797 73.0834 115.82 72.9876 114.464 72.9876H113.802C111.09 72.9876 110.743 76.5321 110.554 78.4161C110.522 78.5757 110.522 78.7673 110.491 78.895C110.176 81.5773 109.23 92.8173 110.585 95.0845C111.153 96.0425 111.941 96.1702 112.698 96.1702C113.076 96.1702 113.518 96.1383 113.991 96.0744C114.464 96.0425 115 95.9786 115.631 95.9786C116.072 95.9786 116.419 95.787 116.703 95.4677C117.554 94.4778 117.302 92.2426 117.176 91.0611C117.176 90.9334 117.144 90.8056 117.144 90.7098C116.923 88.3149 116.86 86.6545 116.797 84.068C118.058 86.4629 120.14 91.3165 121.086 93.5518C121.306 94.0627 121.464 94.4459 121.558 94.6694C122.095 95.8828 123.324 96.0425 124.333 96.0425C124.617 96.0425 124.869 96.0425 125.153 96.0105C125.405 96.0105 125.626 95.9786 125.847 95.9786C127.581 95.9786 128.716 95.5315 128.905 93.2963C129.126 90.7098 129.126 87.8679 128.842 84.6747C128.685 81.7689 128.369 79.4059 127.896 77.2346ZM146.532 76.1489C146.405 75.4145 146.027 74.8397 145.396 74.4565C143.126 73.0196 140.099 72.7002 137.955 72.7002C136.757 72.7002 135.527 72.796 134.392 72.9876C133.414 73.1473 130.482 73.6263 129.694 75.606C129.41 76.3724 129.315 76.9791 129.252 77.3623L129.221 77.522C129.095 78.3203 129.031 80.2362 129.694 81.0025C129.883 81.2261 130.104 81.3538 130.387 81.3538C130.703 81.3538 131.05 81.1941 131.428 80.8429C133.068 79.374 134.108 78.8631 134.55 78.8631C134.613 78.8631 134.644 78.8631 134.676 78.895C134.676 78.895 134.739 78.9589 134.707 79.1824L134.613 79.6614C134.329 81.4177 133.541 86.1116 133.351 89.1132C133.257 90.8695 133.036 94.9248 135.023 95.9147C135.464 96.1383 136.095 96.234 136.946 96.234C137.797 96.234 138.68 96.1382 139.405 96.0425C139.595 96.0105 139.784 96.0105 139.973 95.9786C140.446 95.9147 140.793 95.7551 141.014 95.4038C141.487 94.7332 141.203 93.6476 141.014 92.9131L140.982 92.8173C140.572 91.2207 140.32 89.4964 140.194 87.6124C140.099 85.8881 140.131 84.0361 140.288 82.0244C140.351 81.3538 140.478 80.6194 140.667 79.8849C140.698 79.6933 140.856 79.1824 140.982 79.1824C141.045 79.1824 141.171 79.2143 141.518 79.4698C141.707 79.5975 141.896 79.8211 142.117 80.0446C142.622 80.5555 143.189 81.1303 143.851 81.1303C144.261 81.1303 144.64 80.9067 144.987 80.4916C145.932 79.374 146.752 77.5858 146.532 76.1489ZM107.748 72.9876H107.621H106.865C105.477 72.9876 104.09 73.1473 103.396 74.233C101.82 76.7875 100.779 89.7838 101.189 93.1367C101.284 93.9988 101.441 95.2122 102.261 95.8189C102.639 96.1063 103.112 96.1383 103.491 96.1383C103.648 96.1383 103.775 96.1383 103.901 96.1383C104.216 96.1383 104.5 96.1383 104.847 96.1383C105.099 96.1383 105.351 96.1702 105.635 96.1702C106.234 96.1702 106.991 96.1063 107.558 95.6912C108.441 95.0206 108.378 93.424 108.347 92.5619C108.284 90.646 108.284 86.3671 108.977 79.4059C109.04 78.6396 109.167 77.9371 109.293 77.2665C109.576 75.606 109.797 74.2968 109.167 73.5943C108.883 73.1792 108.441 72.9876 107.748 72.9876ZM76.4051 75.3506C75.7114 74.6162 74.9861 74.0414 74.324 73.6263C74.4501 73.5624 74.5447 73.4666 74.6708 73.4027C74.9861 73.1792 75.3014 72.8918 75.6168 72.6044C75.9321 72.3171 76.2159 71.9977 76.4681 71.6784C76.7519 71.3591 77.0042 71.0079 77.1618 70.6566C77.3825 70.2415 77.4771 69.8902 77.4771 69.5709C77.4771 69.2516 77.3195 68.9642 77.0672 68.8046C76.9096 68.7088 76.6888 68.6449 76.4681 68.6449L75.7114 68.7088C75.7114 68.7088 75.7113 68.7088 75.7429 68.7088C75.7113 68.7088 75.5537 68.7407 74.4186 68.8684C74.387 68.8684 74.1978 68.9004 73.3149 68.9962C73.2834 68.9962 73.2203 69.0281 73.1573 69.0281H73.1257L71.7384 69.0919L71.3284 69.1239H71.0131C70.5086 69.1239 70.1302 69.1558 69.878 69.2516C69.4365 69.3793 69.1528 69.7944 69.1528 70.3054C69.1528 70.5927 69.2158 70.8801 69.3735 71.2314C69.4996 71.5188 69.6573 71.8062 69.878 72.0935C70.0672 72.349 70.2564 72.6045 70.5086 72.8918L71.2023 73.5624C71.2023 73.5624 71.2023 73.5624 71.2338 73.5943C71.0762 73.6901 70.9501 73.754 70.7924 73.8498C70.7924 73.8498 70.7609 73.8498 70.7609 73.8817L70.6663 73.9456C70.5402 74.0414 70.4456 74.1052 70.351 74.1372C70.2564 74.201 70.2248 74.233 70.2248 74.233C64.1707 78.3203 62.1842 86.8141 63.3509 93.1686C63.8554 95.8828 65.4005 96.0744 67.5446 96.0744C67.6708 96.0744 67.7969 96.0744 67.923 96.0744C68.0491 96.0744 68.2068 96.0744 68.3645 96.0744C69.405 96.0744 70.4456 95.9786 70.887 95.2761C71.1708 94.829 71.1708 94.1904 70.8239 93.3921C70.7924 93.3282 70.7609 93.2325 70.7293 93.1047C70.3194 92.0829 69.3735 89.7199 70.5717 89.0813C71.0131 88.8578 72.6528 88.4107 73.851 88.4107C74.6393 88.4107 74.86 88.6023 74.9231 88.6662C75.396 89.3048 74.6077 90.8695 74.0402 91.8913C73.9771 92.019 73.914 92.1468 73.851 92.2745L73.7879 92.3703C73.4095 93.1367 72.8104 94.2862 73.1573 95.1164C73.3149 95.4996 73.6303 95.7551 74.1032 95.9147C74.5131 96.0425 74.9546 96.0744 75.5537 96.0744C75.9321 96.0744 76.342 96.0425 76.6888 96.0425C77.0357 96.0105 77.3825 96.0105 77.6663 96.0105C80.2204 96.0105 80.7249 94.0627 80.8826 92.3703C81.1979 89.0813 81.0402 85.9201 80.4411 83.2378C79.7474 80.1723 78.3285 77.3942 76.4051 75.3506ZM74.0717 83.3655C72.8735 83.3655 71.5492 83.6209 70.7609 83.7806C70.4456 83.8445 70.1618 83.9083 70.0987 83.9083C70.0041 83.9083 70.0041 83.8764 70.0041 83.8125C70.0041 82.3756 72.0852 79.4698 72.905 79.4698C73.378 79.4698 74.8285 81.7689 74.8285 83.0142C74.7969 83.2697 74.7969 83.3655 74.0717 83.3655ZM97.689 86.7183C96.8376 86.7183 95.9863 87.0696 95.3556 87.7082C94.4727 88.6343 93.4952 89.1452 92.5493 89.1452C91.4457 89.1452 90.4051 88.5065 89.6799 87.357C88.6709 85.7923 88.4817 83.7167 89.1754 82.0563C89.9006 80.332 91.4142 79.1186 92.9592 78.9908C94.4727 78.8631 94.9457 79.4379 95.5133 80.0765C95.7655 80.3639 96.0493 80.6832 96.3962 80.9067C96.8376 81.1941 97.2791 81.3219 97.7836 81.3219C98.5719 81.3219 99.234 80.9387 99.5809 80.6194C101.41 78.7673 99.4232 76.085 98.761 75.3187C97.3737 73.6582 95.2295 72.7641 92.707 72.7641C91.0673 72.7641 89.3961 73.1473 87.9457 73.8817C84.7925 75.4783 82.5222 78.895 81.9546 83.0142C81.2609 87.836 83.2474 92.5938 86.9051 94.861C88.2925 95.7231 89.9006 96.1702 91.5403 96.1702C94.1574 96.1702 96.7745 95.0206 98.6665 93.0089C100.117 91.4762 100.653 89.9754 100.212 88.5704C99.8016 87.3889 98.8556 86.7183 97.689 86.7183ZM76.1213 83.1739C76.1213 83.11 76.1213 83.0462 76.1213 82.9823C76.1213 81.6092 74.5762 78.0967 72.8735 78.0967C72.6528 78.0967 72.4636 78.1606 72.2429 78.2245C72.8104 77.6178 73.4411 77.2346 73.9771 77.2346C75.4906 77.2346 76.9726 80.6194 76.9726 81.8328C76.9726 82.5353 76.6888 82.9823 76.1213 83.1739ZM38.4409 93.8711C38.5355 94.4778 38.5985 94.7333 37.9048 94.7333C36.6751 94.7333 35.7922 94.7333 34.5625 94.7333C33.8372 94.7333 33.4588 94.9248 33.3958 94.0307C33.3327 92.6577 33.2697 91.0611 33.2381 89.5922C33.2066 86.5906 33.3643 83.3336 33.8057 80.3639C33.9634 79.2463 34.6255 74.2649 35.6976 74.3607C34.4679 79.3421 33.9949 84.4831 34.121 89.6242C34.1525 90.8695 34.1525 92.2745 34.2156 93.4879C34.2471 93.8711 34.4363 93.903 34.9408 93.903C35.9499 93.8711 37.4634 93.8711 38.4409 93.8711ZM12.3641 93.903C10.22 93.903 8.07581 93.9988 5.93165 94.0627C4.95417 94.0946 3.56677 94.1585 2.74695 93.456C2.05325 92.8812 2.17938 91.4443 2.14785 90.646C2.05325 87.7721 2.30551 84.8663 2.62082 82.0244C2.90461 79.4698 3.15686 76.7556 3.94516 74.2968C2.17938 74.233 1.2019 87.7082 1.29649 91.572C1.32802 92.7535 1.13883 94.3181 2.4947 94.7013C4.03975 95.1484 5.86859 94.861 7.44518 94.829C8.70645 94.7971 9.96771 94.7333 11.229 94.7333C11.9542 94.7333 12.9632 94.7652 13.4362 94.6055C13.8461 94.4778 13.6885 93.8711 13.6885 93.8392C13.3101 93.903 12.7425 93.903 12.3641 93.903ZM60.3869 93.903C60.7653 93.903 61.3329 93.903 61.7113 93.8711C61.7113 93.8711 61.8689 94.5097 61.459 94.6375C61.0176 94.7971 59.977 94.7652 59.2518 94.7652C57.9905 94.7652 56.7293 94.829 55.468 94.861C53.8914 94.8929 52.0626 95.1803 50.5175 94.7333C49.1616 94.3501 49.3508 92.7854 49.3193 91.6039C49.2247 87.7402 50.2022 74.233 51.968 74.3288C51.1797 76.7875 50.9274 79.5017 50.6436 82.0563C50.3283 84.8982 50.0761 87.804 50.1707 90.6779C50.2022 91.4762 50.0761 92.9131 50.7698 93.4879C51.5896 94.1585 52.9455 94.0946 53.9545 94.0946C56.0986 93.9988 58.2428 93.903 60.3869 93.903ZM105.824 93.9988C106.203 93.9988 106.865 93.9988 107.243 93.9669C107.243 93.9669 107.306 94.6055 106.928 94.7333C106.486 94.8929 105.446 94.829 104.721 94.861C103.712 94.8929 104.185 94.861 103.869 94.861C102.482 94.861 102.387 93.5198 102.356 92.3384C102.261 88.4746 103.239 74.233 105.004 74.3288C104.216 76.7875 103.964 79.5017 103.68 82.0563C103.365 84.8982 103.239 87.804 103.207 90.6779C103.207 91.572 103.207 93.3282 103.365 93.6156C103.585 93.935 104.153 94.0307 105.824 93.9988ZM114.874 93.8392C115.252 93.8392 115.914 93.8072 116.324 93.8072C116.324 93.8072 116.419 94.4139 116.009 94.5736C115.567 94.7333 114.527 94.7013 113.77 94.7333C112.761 94.7652 113.234 94.7333 112.919 94.7333C111.5 94.7652 111.342 93.424 111.279 92.2745C111.027 88.4746 111.563 74.4565 113.36 74.5204C112.667 76.9472 112.509 79.6295 112.32 82.1521C112.131 84.9621 111.941 87.804 112.036 90.646C112.067 91.5081 112.131 93.2644 112.32 93.5198C112.603 93.8072 113.171 93.8711 114.874 93.8392ZM98.0674 78.895C98.3196 79.0547 98.6034 79.1505 98.8872 79.1505H98.9187C98.8556 79.3421 98.761 79.5337 98.6349 79.6933C98.5088 79.8211 98.1935 80.0127 97.7836 80.0127C97.5628 80.0127 97.3106 79.9488 97.0899 79.7891C96.8691 79.6614 96.7115 79.4379 96.4908 79.2144C95.9232 78.5438 95.1349 77.6497 93.3376 77.6497C93.1799 77.6497 93.0223 77.6497 92.8646 77.6816C92.1709 77.7455 91.5088 77.9371 90.8781 78.2883C91.761 77.4581 92.8646 76.9153 93.9998 76.8195C94.1574 76.8195 94.3151 76.7875 94.4727 76.7875C96.1754 76.7875 96.8691 77.5858 97.4367 78.2564C97.6259 78.5119 97.8151 78.7354 98.0674 78.895ZM155.171 85.2814C154.824 85.1537 154.509 85.0898 154.162 85.0898C153.847 85.0898 153.532 85.1537 153.248 85.2495C153.752 84.6428 154.478 84.2277 155.266 84.2277C155.581 84.2277 155.897 84.2915 156.18 84.3873C156.811 84.6428 157.315 84.7705 157.725 84.8663C157.442 85.7604 157.347 85.7923 157.095 85.7923C156.716 85.7923 156.054 85.6007 155.171 85.2814ZM160.153 78.2564C159.933 78.7354 159.806 78.895 159.365 79.0547C159.207 79.1186 159.081 79.1186 158.924 79.1186C158.388 79.1186 157.757 78.7673 157.126 78.3841C156.433 77.969 155.707 77.5539 154.856 77.4262C154.667 77.3942 154.478 77.3942 154.32 77.3942C153.847 77.3942 153.406 77.49 152.996 77.6178C153.563 76.9153 154.415 76.5321 155.424 76.5321C155.581 76.5321 155.77 76.5321 155.928 76.564C156.716 76.6598 157.442 77.0749 158.104 77.49C158.829 77.9051 159.523 78.2883 160.153 78.2564ZM123.513 81.2899C123.419 80.4278 123.167 79.0228 122.914 77.6816C122.694 76.5321 122.504 75.2867 122.441 74.9674C122.378 74.6481 122.567 74.3926 123.356 74.3288C123.45 74.9035 123.608 75.7018 123.766 76.6279C124.049 78.1287 124.333 79.6614 124.396 80.4597C124.428 80.8429 124.176 81.1941 123.829 81.2899C123.734 81.2899 123.64 81.2899 123.513 81.2899ZM44.4949 78.3522C44.4949 79.0547 44.1166 79.9807 43.3598 80.5555C43.549 80.2042 43.6436 79.8211 43.6436 79.4698C43.6436 77.7136 42.3193 76.564 40.2382 76.564C39.8913 76.564 39.4183 76.564 38.8823 76.7237C38.9454 76.6279 39.04 76.5001 39.1346 76.4363C39.8913 75.7338 40.8057 75.7018 41.3418 75.7018C43.2652 75.7338 44.4949 76.7556 44.4949 78.3522ZM131.523 79.2144C131.649 79.5975 130.671 80.2362 130.608 79.8211C130.293 78.4799 130.45 76.117 131.68 75.2867C131.333 76.3724 131.176 77.8094 131.523 79.2144ZM127.045 93.8392C127.266 93.8392 127.423 93.8392 127.613 93.8072C127.455 94.5417 127.077 94.6694 125.941 94.6694C125.689 94.6694 125.437 94.6694 125.185 94.7013C124.932 94.7013 124.68 94.7333 124.428 94.7333C123.23 94.7333 122.977 94.4459 122.851 94.1585C122.757 93.9349 122.599 93.5837 122.378 93.0728C121.18 90.2309 118.658 84.3554 117.459 82.4714C117.333 82.2479 117.113 82.1202 116.892 82.0244C116.892 81.9924 116.892 81.9605 116.892 81.9286C116.892 81.5773 117.113 81.258 117.459 81.1303C117.806 81.0345 118.153 81.1622 118.342 81.4815C119.509 83.3336 122 89.209 123.23 92.051L123.293 92.1787C123.482 92.5938 123.608 92.9131 123.703 93.1047C123.892 93.5518 124.27 93.8392 125.5 93.8392C125.752 93.8392 126.004 93.8392 126.257 93.8072C126.54 93.8392 126.793 93.8392 127.045 93.8392ZM138.113 94.1265C138.617 94.1265 139.09 94.0307 139.563 93.9988C140.036 93.9349 139.973 94.0307 140.005 94.4778C140.005 94.861 138.617 94.8929 138.27 94.9248C137.482 94.9887 136.284 95.0845 135.464 94.6375C134.486 94.0627 134.644 90.4224 134.739 88.9855C134.928 86.3032 135.338 83.6529 135.779 81.0025C135.905 80.2042 136.284 79.1186 135.937 78.3841C135.306 77.0111 133.635 77.7136 132.689 78.2883C133.446 77.6816 134.36 76.9791 135.338 76.7556C136.315 76.564 137.041 77.2665 136.883 78.2564C136.725 80.0765 136.284 81.8966 136.032 83.6848C135.685 86.1436 135.338 89.8157 135.59 92.3064C135.716 94.0627 136.095 94.1904 138.113 94.1265ZM159.523 93.8392C159.523 93.8711 159.523 93.9349 159.554 93.9669C159.617 94.3501 159.554 94.5097 159.523 94.5417C159.523 94.5417 159.397 94.7013 158.703 94.7013C157.221 94.7332 155.739 94.7333 154.509 94.7333H151.198C150.883 94.7333 150.568 94.7332 150.252 94.7652C149.937 94.7652 149.653 94.7971 149.338 94.7971C148.928 94.7971 148.644 94.7652 148.36 94.7333C147.887 94.6375 147.73 94.1904 147.698 92.7215C147.698 92.5619 147.698 92.4022 147.667 92.2745C147.414 88.1553 147.635 83.9083 148.297 79.6295C148.36 79.3101 148.392 78.9589 148.424 78.6076C148.707 76.3405 149.023 74.9674 149.842 74.5204C149.559 75.2867 149.401 76.3086 149.275 77.4581C149.243 77.8094 149.18 78.1606 149.149 78.4799C148.487 82.7588 148.266 87.0377 148.487 91.1888C148.487 91.3165 148.487 91.4762 148.518 91.6359C148.581 93.1367 148.707 93.7753 149.401 93.903C149.685 93.9669 150 93.9988 150.41 93.9988C150.725 93.9988 151.041 93.9988 151.356 93.9669C151.671 93.9669 151.987 93.935 152.302 93.935H155.613C156.779 93.8392 158.135 93.8392 159.523 93.8392ZM69.5311 93.8392C69.5311 93.8711 69.4996 93.8392 69.5311 93.8392C69.8465 94.6375 69.5942 94.6375 68.8374 94.6694C67.923 94.7332 66.914 94.7652 65.9996 94.5736C64.3599 94.2862 64.423 91.9552 64.3599 90.646C64.1077 86.2394 65.3059 81.4815 68.0491 77.969C65.9365 81.3538 65.0221 85.5049 65.2113 89.4645C65.2744 90.614 65.2428 92.8173 66.4095 93.456C67.2924 93.9988 68.5536 93.8392 69.5311 93.8392ZM144.009 78.1925C144.261 78.448 143.788 77.969 144.009 78.1925C144.545 78.7354 144.671 78.7034 144.198 79.374C143.788 79.9488 143.694 79.7572 143.252 79.3101C142.653 78.7034 141.928 77.8732 140.982 77.8732C141.707 76.2766 143.189 77.3623 144.009 78.1925ZM92.6124 93.9669C94.1574 93.9669 95.6709 93.5198 97.0268 92.7215C95.4502 94.0627 93.4953 94.829 91.5088 94.829C90.0898 94.829 88.7655 94.4459 87.5673 93.7114C83.8781 91.4443 82.7429 86.7822 83.2474 83.2058C83.5628 80.9387 84.4456 78.927 85.7069 77.3623C84.8871 78.7034 84.3195 80.3 84.0673 82.0563C83.5312 85.7285 84.6979 90.4863 88.5132 92.8173C89.7745 93.5837 91.1304 93.9669 92.6124 93.9669ZM77.887 94.0307C78.3285 93.9988 79.306 93.8072 79.4636 93.8072C78.8645 95.1484 73.7249 95.6912 74.5131 93.8072C74.7969 93.1047 75.5537 91.4123 75.6798 91.0611C76.2474 89.5284 76.815 87.9318 75.0807 87.2931C73.6618 86.7822 71.7384 87.2293 70.3825 87.7082C71.2023 86.431 73.5672 86.2394 74.8915 86.2394C77.2249 86.2394 77.4141 87.9637 76.8465 89.9115C76.4996 91.1249 75.9636 92.3703 75.5222 93.3282C75.0177 94.4139 76.9096 94.0946 77.887 94.0307ZM17.5669 82.7907C18.1975 82.8865 19.0489 82.184 19.5218 81.8647C20.2155 81.3857 20.9408 80.9387 21.7921 81.0345C23.1164 81.1941 24.4408 82.5353 24.1255 83.9722C24.9137 83.142 24.4092 81.8008 24.0624 81.2899C23.6525 80.6832 22.9588 80.1084 21.7606 80.1084C20.4993 80.1404 19.648 80.9387 18.5443 81.4815C17.3461 82.0563 17.2515 80.8109 17.5984 79.8849C16.8732 80.6194 16.0533 82.5353 17.5669 82.7907C17.5984 82.7907 17.3461 82.7588 17.5669 82.7907ZM26.8372 93.8711C26.8372 93.8072 26.8372 93.7753 26.8372 93.7114C25.4498 93.8072 24.0624 93.8392 22.675 93.8711C21.4137 93.903 19.9948 93.9349 18.8597 93.3282C16.4317 92.0829 16.8416 88.6023 17.9452 86.5906C15.8957 88.5704 15.3912 93.3602 18.6389 94.4139C19.9948 94.861 21.4768 94.7332 22.8957 94.7013C23.7155 94.6694 24.5354 94.6374 25.3552 94.6055C25.7651 94.5736 26.175 94.5736 26.6165 94.5417C26.9633 94.4778 26.8372 94.1585 26.8372 93.8711ZM75.6168 70.7843C75.7744 70.6566 75.333 71.0398 75.6168 70.7843C75.7744 70.6247 75.9321 70.4969 76.0582 70.3373C75.4276 71.3272 73.4095 73.7221 72.0852 72.828C71.3284 72.3171 70.4771 71.2952 70.1618 70.4012C70.0041 70.0499 70.3825 70.0818 70.6032 70.0499C71.0762 69.986 71.2338 70.3054 71.4546 70.6885C72.1167 71.8062 72.7474 72.4129 73.5672 72.0935C74.387 71.8062 75.0492 71.3272 75.6168 70.7843ZM24.5038 89.1452C24.5038 89.9115 24.5984 90.7418 24.2831 91.4762C25.4813 90.7418 25.3867 88.4746 25.1975 87.1973C24.8192 84.3873 21.193 85.7285 20.2786 87.4528C21.0669 86.7183 22.4227 86.2394 23.4633 86.7183C24.4408 87.1654 24.5354 88.2191 24.5038 89.1452Z" fill="#1D4983"/>
<path d="M119.698 27.2289C120.045 31.6994 119.036 38.5648 115.41 43.7377C114.338 45.2385 112.761 46.2284 111.626 46.0687C111.027 45.9729 110.586 45.5259 110.333 44.7595C106.802 33.8388 100.748 28.5062 97.1217 25.345C95.009 23.4929 94.0631 22.5669 94.0631 21.7686C94.0631 21.577 94.1261 21.4173 94.2207 21.2257C95.5766 18.8309 101.631 17.6174 107.969 18.4477C111.595 18.9266 115.599 20.172 117.775 22.3114C116.482 19.7569 114.748 17.362 112.667 15.1906C112.257 15.1587 111.847 15.1587 111.406 15.1268C105.478 14.8074 96.5225 14.2965 87.8198 16.7233C87.4099 16.8191 87.2522 16.7233 87.0946 16.4998C85.9279 14.9352 86.7477 8.61265 89.0495 4.81275C89.3018 4.36571 89.6486 3.91866 90.027 3.50355C88.009 3.12037 85.9594 2.86491 83.8153 2.73718C84.4459 3.759 84.6982 5.89844 84.4774 8.58072C84.0045 14.1369 82.0495 18.8628 80.6306 19.246C78.8963 19.693 77.4774 18.3519 74.8918 15.7654C72.0539 12.8915 68.2071 9.09163 61.6169 6.53708C60.1665 7.17571 58.7791 7.91015 57.4548 8.70844C59.0944 9.05969 60.7341 9.6664 62.2161 10.4008C67.2296 12.9235 70.6981 17.0107 70.2882 19.9165C70.0674 21.5131 68.3332 22.1198 64.4548 23.3652C59.9142 24.834 53.0403 27.0373 44.2745 33.1363C43.8961 33.3918 43.4862 33.4876 43.1709 33.3279C43.3286 35.2119 43.7069 37.032 44.2745 38.8202C44.4006 38.5648 44.5583 38.3412 44.7475 38.1496C53.5448 28.2827 68.7431 24.7702 72.4639 26.3348C73.0314 26.5584 72.9999 26.8138 72.9999 26.8777C72.9684 27.3567 72.6215 28.3785 72.1485 29.6558C70.7611 33.5514 68.1755 40.768 67.2927 52.966C67.1665 54.5307 66.3152 55.5844 64.7071 55.9996C62.9728 56.4785 60.6079 56.2231 58.0223 55.2971C64.0764 59.065 71.5494 61.5238 79.7792 62.0347C101.126 63.3758 119.352 51.2098 120.455 34.8607C120.613 32.2103 120.329 29.6877 119.698 27.2289ZM107.653 47.5376C107.59 49.0065 105.761 50.0283 105.005 50.4115C93.5901 56.0634 75.4278 60.1826 71.5179 58.0113C71.0134 57.7239 70.9503 57.4684 70.9188 57.2768V57.2449V57.213C69.9098 51.7526 72.4639 31.3481 78.7387 24.2593C80.1891 22.5988 81.7342 21.8324 83.3423 21.9602C90.8468 22.535 97.2793 29.2726 100.432 33.2321C105.036 39.0437 107.779 45.1746 107.653 47.5376Z" fill="#CC7E3C"/>
<path d="M83.4066 21.2896C73.3165 20.4914 68.902 50.0922 70.2264 57.3727C70.7939 62.2902 93.15 57.0853 105.321 51.0502C106.709 50.3477 108.285 49.1662 108.348 47.5696C108.632 42.237 96.6815 22.3115 83.4066 21.2896Z" fill="#F0AA63"/>
<path d="M44.18 37.6387C41.8782 40.2252 44.0223 44.6638 44.6845 45.5898C52.4729 56.9575 67.3874 60.3742 67.9549 52.966C69.1531 36.3615 73.5361 29.0171 73.6622 26.8777C73.8514 22.9501 54.5855 25.9517 44.18 37.6387Z" fill="#F0AA63"/>
<path d="M49.0052 9.858C45.6943 13.2747 41.4691 23.8122 41.8159 32.0826C41.879 33.8388 43.2979 34.6052 44.6223 33.6792C60.6404 22.4711 70.3206 24.5467 70.9512 19.9804C71.8972 13.0831 55.4061 3.28003 49.0052 9.858Z" fill="#F0AA63"/>
<path d="M83.4684 1.5241C72.7476 -3.26569 53.5133 4.58956 59.5674 6.5374C73.2837 10.9759 75.9008 21.1622 80.7567 19.9169C84.2567 18.9908 87.1892 3.15262 83.4684 1.5241Z" fill="#F0AA63"/>
<path d="M92.1401 1.87475C86.9058 0.948723 83.4058 18.639 87.9779 17.3617C99.077 14.2643 110.87 16.0206 115.474 15.9567C122.064 15.8928 108.978 4.87634 92.1401 1.87475Z" fill="#F0AA63"/>
<path d="M119.982 24.5782C117.901 16.5953 96.8063 15.2541 93.6532 20.8422C91.4775 24.6421 103.901 27.037 109.703 44.9508C110.712 48.0162 114.117 46.7709 115.978 44.1205C120.455 37.7342 121.086 28.8252 119.982 24.5782Z" fill="#F0AA63"/>
<path d="M118.753 33.0088C118.627 35.8826 117.87 38.5649 116.514 41.0556C115.789 42.3648 114.307 44.3127 112.415 43.7379C110.775 43.2589 109.829 41.2472 109.325 39.9061C108.316 37.1919 107.559 32.3701 104.627 30.8374C107.37 32.2424 108.915 33.6793 110.397 36.2658C110.964 37.2557 111.532 38.533 112.825 38.5011C114.212 38.4372 114.969 36.7767 115.253 35.5953C115.978 32.5617 115.284 28.6341 113.897 25.7922C112.194 22.4074 108.631 21.162 105.131 20.5553C103.145 20.2041 98.7616 19.8848 96.8382 20.9705C96.8382 20.9705 101.694 17.4579 111.311 20.0444C114.023 20.7789 116.703 22.0242 117.901 24.6107C119.131 27.1972 118.942 29.2089 118.753 33.0088ZM113.582 13.6581C113.172 15.1269 110.176 14.5841 109.167 14.5202C107.622 14.4563 106.045 14.0093 104.5 13.8177C102.987 13.6261 101.536 13.5942 100.023 13.5942C97.7842 13.5623 95.5454 13.4984 93.4328 14.2328C92.676 14.4883 91.8877 14.7118 91.131 15.0311C90.5319 15.2866 89.8382 15.7975 89.2075 15.8933C88.703 15.9571 87.9462 15.7656 87.5994 15.3504C87.2526 14.9673 87.221 14.169 87.158 13.69C86.9688 11.9976 87.4733 10.0178 88.4823 8.61281C88.1039 9.79429 87.6625 11.1993 89.3021 11.6144C90.2165 11.8379 91.194 11.6144 92.0138 11.2632C93.7166 10.5287 95.1355 9.82623 97.0589 9.82623C98.9193 9.85816 100.496 10.0817 102.23 10.7523C103.271 11.1674 104.311 11.5825 105.383 11.8379C105.982 11.9657 107.338 12.3169 107.78 11.6783C108.063 11.2632 107.717 10.5926 107.527 10.2413C106.172 7.94224 103.018 7.11202 100.622 6.28179C99.2031 5.77088 94.9778 4.20621 94.694 3.7911L99.8337 5.35576C102.325 6.0902 103.712 6.47338 105.194 7.14395C106.613 7.78259 107.811 8.93213 108.852 9.73043C109.924 10.5287 111.248 10.9758 112.32 11.806C112.793 12.2211 113.771 12.9556 113.582 13.6581ZM83.8156 8.996C83.7841 10.7842 83.4372 12.6043 82.6489 14.2009C82.1444 15.2546 81.3561 16.5319 80.0949 16.7874C78.3606 17.1706 76.8471 15.1908 75.9011 14.0732C74.1354 11.9657 71.8651 10.1136 69.4371 8.77247C68.1759 8.1019 67.0092 7.46327 65.6218 7.01622C64.2975 6.60111 62.7209 6.44145 61.4911 5.80281C60.0722 5.06838 61.9011 4.11042 62.5632 3.72724C62.5632 3.72724 63.0677 3.43985 63.2569 3.43985C62.5632 4.01462 62.0587 5.03644 63.32 5.2919C64.6443 5.54735 66.0002 5.41963 67.356 5.35576C69.2164 5.2919 70.6353 5.38769 72.3065 6.34565C73.3471 6.95236 74.1354 7.94224 74.9867 8.74054C75.7119 9.44304 76.1219 10.3691 76.784 11.1035C77.9822 12.4446 80.2525 13.1471 81.3246 11.2632C82.0813 9.89009 82.3967 8.32543 82.3021 6.76077C82.2075 5.48349 81.7345 4.17428 80.8201 3.28019C79.7165 2.16257 78.3291 2.16257 76.8471 1.87519C77.6669 1.52394 78.8966 1.55587 79.7795 1.6836C83.5318 2.22644 83.8471 5.96247 83.8156 8.996ZM68.0813 21.2259C65.4326 22.5351 62.4371 23.2057 59.6938 24.2914C54.7434 26.3031 53.356 27.2291 50.2028 28.7618C48.8785 29.4005 47.6172 30.1988 46.3244 30.8374C44.6847 31.6357 43.3919 31.6357 43.2658 29.6879C43.1397 27.8358 43.1712 26.5905 43.8649 24.8661C43.5181 27.0694 44.4955 28.8257 47.0181 27.8358C49.0992 27.0056 51.0857 25.0897 53.1352 23.9082C56.2253 22.12 59.9146 21.2578 63.1938 19.9806C65.3695 19.1503 67.1353 17.7453 65.5587 15.4143C64.2029 13.4345 62.2164 11.9018 59.883 11.1354C55.6262 9.6985 53.419 10.1455 52.0316 10.4329C54.5857 8.83634 59.9776 9.6985 62.8155 11.1993C65.1488 12.4127 66.4416 13.5303 68.4912 16.1168C69.7524 17.8092 70.257 20.1402 68.0813 21.2259ZM68.5227 35.7868C67.293 39.1397 66.6623 42.7799 66.4101 46.3882C66.1894 49.3579 66.5362 54.4351 62.2794 54.6267C58.6218 54.7863 53.6713 52.0721 50.8019 50.0604C48.2163 48.2722 43.7072 43.6102 44.7793 40.1615C45.3154 45.3026 55.5316 52.9023 60.892 51.4654C64.9912 50.3478 64.0767 45.6219 63.9506 42.2052C63.8876 40.2892 64.0767 38.9162 64.5812 37.128C65.0227 35.6272 66.4732 33.5836 66.1578 32.0189C65.4326 28.6022 60.1668 29.7517 56.3515 30.4223C56.3515 30.4223 64.2029 26.3989 68.302 27.1333C72.9056 27.9635 69.4687 33.2004 68.5227 35.7868ZM104.847 48.3999C103.145 50.7948 99.2031 52.136 96.5544 52.7746C92.8337 53.6687 89.0183 54.1477 85.3607 55.1376C80.3471 56.5106 69.784 59.2887 71.7074 50.3159C72.1173 51.8805 71.8651 54.8183 77.3516 54.6267C79.6849 54.5309 82.9012 51.6889 89.7751 50.2201C92.0138 49.7411 94.5679 49.773 96.8697 49.3579C101.631 48.4638 102.356 43.9614 100.054 40.3531C97.8157 36.9045 94.8517 35.9146 91.8877 33.2004C89.9328 31.3802 87.2841 28.1232 85.0769 26.5585C80.694 23.525 76.5948 30.103 76.5948 30.103C76.6264 30.071 76.6264 30.0391 76.6579 30.0072C78.3606 27.0375 78.9912 23.1738 83.5003 23.4292C88.1985 23.6847 92.676 27.8039 95.7346 30.7735C98.7301 33.6793 101.032 36.17 103.05 39.8422C104.658 42.7161 107.086 45.2068 104.847 48.3999Z" fill="white"/>
</svg>
