<svg width="30" height="31" viewBox="0 0 30 31" fill="none" xmlns="http://www.w3.org/2000/svg">
<path d="M4.92701 15L-2.15366e-07 10.073L9.85402 10.073L4.92701 15Z" fill="white"/>
<path d="M4.92748 15.1095L9.85449 20.0365L0.000476622 20.0365L4.92748 15.1095Z" fill="white"/>
<path d="M9.96314 9.9635L5.03613 5.03649L14.8901 5.03649L9.96314 9.9635Z" fill="white"/>
<path d="M20.0369 20.146L24.9639 25.073L15.1099 25.073L20.0369 20.146Z" fill="white"/>
<path d="M9.96362 20.146L14.8906 25.073L5.03661 25.073L9.96362 20.146Z" fill="white"/>
<path d="M20.0364 9.9635L15.1094 5.03649L24.9634 5.03649L20.0364 9.9635Z" fill="white"/>
<path d="M25.073 15.1095L30 20.0365L20.146 20.0365L25.073 15.1095Z" fill="white"/>
<path d="M25.0725 15L20.1455 10.073L29.9995 10.073L25.0725 15Z" fill="white"/>
<path d="M15.0002 4.927L10.0732 -5.72205e-06L19.9273 -6.15278e-06L15.0002 4.927Z" fill="white"/>
<path d="M14.9998 25.1825L19.9268 30.1095L10.0727 30.1095L14.9998 25.1825Z" fill="white"/>
<rect x="14.8906" y="12.2444" width="4.05176" height="4.05176" transform="rotate(45 14.8906 12.2444)" stroke="white" stroke-width="4"/>
<rect x="14.8906" y="12.4818" width="3.71621" height="3.71621" transform="rotate(45 14.8906 12.4818)" fill="#FF4200"/>
</svg>
