<svg width="19" height="19" viewBox="0 0 19 19" fill="none" xmlns="http://www.w3.org/2000/svg">
<path d="M15.8333 6.19568L19 9.36235L15.8333 12.529L12.6667 9.36234L15.8333 6.19568Z" fill="#FF4200"/>
<path d="M9.50033 6.19568L12.667 9.36235L9.50033 12.529L6.33366 9.36234L9.50033 6.19568Z" fill="white"/>
<path d="M3.16634 6.19568L6.33301 9.36235L3.16634 12.529L-0.000325341 9.36234L3.16634 6.19568Z" fill="#FF4200"/>
<path d="M12.6671 11.5652L13.6309 12.529L12.6671 13.4927L11.7033 12.529L12.6671 11.5652Z" fill="white"/>
<path d="M12.6671 5.23193L13.6309 6.1957L12.6671 7.15947L11.7033 6.1957L12.6671 5.23193Z" fill="white"/>
<path d="M6.33311 11.5652L7.29687 12.529L6.33311 13.4927L5.36934 12.529L6.33311 11.5652Z" fill="white"/>
<path d="M6.33311 5.23193L7.29687 6.1957L6.33311 7.15947L5.36934 6.1957L6.33311 5.23193Z" fill="white"/>
<path d="M9.70686 -1.3541e-07L12.8047 3.09783L6.60904 3.09783L9.70686 -1.3541e-07Z" fill="#FF4200"/>
<path d="M9.70622 18.6558L6.6084 15.5579L12.8041 15.5579L9.70622 18.6558Z" fill="#FF4200"/>
</svg>
