<svg width="140" height="141" viewBox="0 0 140 141" fill="none" xmlns="http://www.w3.org/2000/svg">
<path d="M22.9958 70.0005L0.00292868 47.0076L45.9887 47.0076L22.9958 70.0005Z" fill="white"/>
<path d="M22.9925 70.5115L45.9854 93.5043L-0.000391178 93.5043L22.9925 70.5115Z" fill="white"/>
<path d="M46.4997 46.4966L23.5068 23.5037L69.4926 23.5037L46.4997 46.4966Z" fill="white"/>
<path d="M93.5052 94.0154L116.498 117.008L70.5123 117.008L93.5052 94.0154Z" fill="white"/>
<path d="M46.4974 94.0154L69.4902 117.008L23.5045 117.008L46.4974 94.0154Z" fill="white"/>
<path d="M93.5085 46.4966L70.5156 23.5037L116.501 23.5037L93.5085 46.4966Z" fill="white"/>
<path d="M117.003 70.5115L139.996 93.5043L94.0104 93.5043L117.003 70.5115Z" fill="white"/>
<path d="M117.007 70.0005L94.0137 47.0076L139.999 47.0076L117.007 70.0005Z" fill="white"/>
<path d="M70.0036 22.9929L47.0107 4.90542e-05L92.9965 4.70441e-05L70.0036 22.9929Z" fill="white"/>
<path d="M70.0013 117.519L92.9941 140.512L47.0084 140.512L70.0013 117.519Z" fill="white"/>
<rect x="69.4902" y="46.7706" width="33.5751" height="33.5751" transform="rotate(45 69.4902 46.7706)" stroke="#FF4200" stroke-width="4"/>
<rect x="69.4902" y="58.2485" width="17.3424" height="17.3424" transform="rotate(45 69.4902 58.2485)" fill="white"/>
</svg>
