<svg width="20" height="17" viewBox="0 0 20 17" fill="none" xmlns="http://www.w3.org/2000/svg">
<path d="M17.9357 5.95288H16.7014L11.8029 1.17002C11.6486 1.01574 11.4171 0.900022 11.1857 0.900022C10.9543 0.900022 10.7229 0.977165 10.5686 1.13145L10.4529 1.28574C10.2986 1.44002 10.1829 1.67145 10.1829 1.86431C10.1829 2.05717 10.26 2.28859 10.4529 2.44288L14.0014 5.95288H5.20714L8.79429 2.44288C8.94857 2.28859 9.06429 2.05717 9.06429 1.86431C9.06429 1.67145 8.98714 1.44002 8.79429 1.24717L8.67857 1.13145C8.33143 0.784308 7.79143 0.784308 7.44429 1.13145L2.54571 5.95288H1.35C0.617143 5.95288 0 6.57002 0 7.30288C0 8.03574 0.617143 8.65288 1.35 8.65288H1.58143L3.43286 16.0586C3.47143 16.2514 3.62571 16.3672 3.81857 16.3672H15.39C15.5829 16.3672 15.7371 16.2514 15.7757 16.0586L17.6271 8.65288H17.9357C18.6686 8.65288 19.2857 8.03574 19.2857 7.30288C19.2857 6.57002 18.6686 5.95288 17.9357 5.95288ZM10.9929 1.90288C10.9543 1.86431 10.9543 1.82574 10.9543 1.82574L11.1086 1.67145C11.1471 1.67145 11.1857 1.67145 11.1857 1.67145C11.1857 1.67145 11.2243 1.67145 11.2629 1.71002L15.5829 5.95288H15.12L10.9929 1.90288ZM7.94571 1.71002C7.98429 1.67145 8.06143 1.67145 8.1 1.71002L8.21571 1.82574C8.25429 1.86431 8.25429 1.90288 8.21571 1.94145L4.08857 5.95288H3.62571L7.94571 1.71002ZM6.40286 13.7057C6.40286 13.9372 6.21 14.0914 5.94 14.0914C5.67 14.0914 5.47714 13.8986 5.47714 13.7057V10.1957C5.47714 9.96431 5.67 9.81002 5.94 9.81002C6.21 9.81002 6.40286 10.0029 6.40286 10.1957V13.7057ZM8.75571 13.7057C8.75571 13.9372 8.56286 14.0914 8.29286 14.0914C8.02286 14.0914 7.83 13.8986 7.83 13.7057V10.1957C7.83 9.96431 8.02286 9.81002 8.29286 9.81002C8.56286 9.81002 8.75571 10.0029 8.75571 10.1957V13.7057ZM11.1086 13.7057C11.1086 13.9372 10.9157 14.0914 10.6457 14.0914C10.3757 14.0914 10.1829 13.8986 10.1829 13.7057V10.1957C10.1829 9.96431 10.3757 9.81002 10.6457 9.81002C10.9157 9.81002 11.1086 10.0029 11.1086 10.1957V13.7057ZM13.4614 13.7057C13.4614 13.9372 13.2686 14.0914 12.9986 14.0914C12.7286 14.0914 12.5357 13.8986 12.5357 13.7057V10.1957C12.5357 9.96431 12.7286 9.81002 12.9986 9.81002C13.2686 9.81002 13.4614 10.0029 13.4614 10.1957V13.7057ZM17.9357 7.88145H1.35C1.04143 7.88145 0.771429 7.61145 0.771429 7.30288C0.771429 6.99431 1.04143 6.72431 1.35 6.72431H17.9357C18.2443 6.72431 18.5143 6.99431 18.5143 7.30288C18.5143 7.65002 18.2443 7.88145 17.9357 7.88145Z" fill="#112B4C"/>
</svg>
