<svg width="914" height="1423" viewBox="0 0 914 1423" fill="none" xmlns="http://www.w3.org/2000/svg">
<g clip-path="url(#clip0)">
<g opacity="0.3">
<path d="M537.99 218.778C540.914 221.48 545.604 221.619 548.292 218.709L583.606 182.437C586.294 179.528 591.282 179.343 594.207 182.045L634.666 215.826C637.59 218.527 637.774 222.891 635.087 225.801L598.929 264.289C596.242 267.199 596.426 271.563 599.35 274.264L639.265 309.938C642.189 312.64 642.373 317.004 639.361 319.613L601.526 355.354C598.513 357.963 593.525 358.148 590.601 355.446L552.662 322.196C549.738 319.495 545.074 319.979 542.387 322.889L506.879 361.978C504.191 364.887 499.827 365.049 496.902 362.347L458.56 326.927C455.635 324.225 455.126 319.561 457.813 316.652L491.503 278.879C494.191 275.969 493.98 270.982 491.056 268.281L456.78 233.022C453.855 230.32 453.644 225.333 456.332 222.424L489.073 184.374C491.761 181.464 496.126 181.303 499.05 184.004L537.99 218.778Z" fill="#1D4983"/>
<path d="M537.99 218.778C540.914 221.48 545.604 221.619 548.292 218.709L583.606 182.437C586.294 179.528 591.282 179.343 594.207 182.045L634.666 215.826C637.59 218.527 637.774 222.891 635.087 225.801L598.929 264.289C596.242 267.199 596.426 271.563 599.35 274.264L639.265 309.938C642.189 312.64 642.373 317.004 639.361 319.613L601.526 355.354C598.513 357.963 593.525 358.148 590.601 355.446L552.662 322.196C549.738 319.495 545.074 319.979 542.387 322.889L506.879 361.978C504.191 364.887 499.827 365.049 496.902 362.347L458.56 326.927C455.635 324.225 455.126 319.561 457.813 316.652L491.503 278.879C494.191 275.969 493.98 270.982 491.056 268.281L456.78 233.022C453.855 230.32 453.644 225.333 456.332 222.424L489.073 184.374C491.761 181.464 496.126 181.303 499.05 184.004L537.99 218.778Z" fill="url(#paint0_linear)"/>
</g>
<path opacity="0.5" d="M273.127 505.492C276.051 508.193 280.741 508.332 283.428 505.423L318.743 469.15C321.431 466.241 326.419 466.057 329.343 468.758L369.802 502.539C372.727 505.241 372.911 509.605 370.224 512.514L334.066 551.003C331.378 553.912 331.563 558.276 334.487 560.978L374.402 596.652C377.326 599.353 377.51 603.717 374.498 606.326L336.663 642.068C333.65 644.677 328.662 644.861 325.737 642.16L287.799 608.91C284.874 606.208 280.211 606.693 277.524 609.602L242.016 648.691C239.328 651.601 234.963 651.762 232.039 649.06L193.696 613.64C190.772 610.939 190.263 606.275 192.95 603.365L226.64 565.592C229.328 562.683 229.117 557.696 226.193 554.994L191.916 519.736C188.992 517.034 188.781 512.047 191.469 509.137L224.21 471.087C226.898 468.178 231.263 468.016 234.187 470.718L273.127 505.492Z" fill="#1D4983"/>
<path opacity="0.4" d="M499.427 459.346C502.351 462.047 506.716 461.886 509.403 458.977L545.078 416.447C547.766 413.538 552.131 413.376 555.055 416.078L593.775 453.045C596.7 455.747 601.389 455.885 604.077 452.976L638.469 417.05C641.157 414.141 646.145 413.956 649.07 416.658L687.93 449.562C690.855 452.263 696.027 456.443 698.952 459.144L738.269 495.465C741.194 498.166 741.378 502.53 738.69 505.44L701.61 544.275C698.923 547.184 694.233 547.045 691.309 544.344L652.615 508C649.691 505.298 645.326 505.46 642.638 508.369L609.923 547.043C607.236 549.952 607.446 554.939 610.371 557.641L643.075 592.645C645.701 595.67 646.21 600.334 643.522 603.243L611.185 643.464C608.822 646.673 604.457 646.835 601.533 644.133L563.217 609.337C560.292 606.635 555.629 607.12 552.617 609.729L519.743 644.662C517.056 647.571 516.942 652.258 519.866 654.96L555.714 690.472C558.639 693.174 558.525 697.861 555.837 700.77L520.874 737.966C518.186 740.876 513.496 740.737 510.572 738.035L473.477 702.569C470.552 699.867 465.678 695.365 462.754 692.663L425.412 658.767C422.488 656.065 421.979 651.401 424.666 648.492L455.563 611.134C457.926 607.925 458.04 603.238 455.116 600.536L422.412 565.532C419.786 562.507 419.9 557.82 422.263 554.61L455.628 516.537C458.315 513.628 457.806 508.964 454.882 506.262L412.148 470.38C409.224 467.678 409.039 463.314 411.727 460.405L450.598 419.631C453.286 416.721 457.651 416.56 460.575 419.261L499.427 459.346Z" fill="#89C1D8"/>
<g opacity="0.3">
<path d="M327.947 384.195C325.023 381.494 320.658 381.655 317.97 384.564L282.296 427.094C279.608 430.003 275.243 430.165 272.319 427.463L233.599 390.496C230.674 387.794 225.985 387.656 223.297 390.565L187.956 426.214C185.269 429.123 180.28 429.307 177.356 426.606L138.794 393.379C135.869 390.677 130.697 386.498 127.772 383.797L87.8314 347.499C84.9069 344.797 84.7227 340.433 87.4102 337.524L124.49 298.689C127.178 295.78 131.867 295.918 134.792 298.62L173.486 334.964C176.41 337.665 180.775 337.504 183.462 334.595L216.204 296.544C218.891 293.635 218.681 288.648 215.756 285.946L183.052 250.942C180.426 247.917 179.917 243.253 182.604 240.344L215.267 200.423C217.629 197.214 221.994 197.052 224.919 199.754L263.235 234.551C266.159 237.252 270.823 236.768 273.835 234.159L306.708 199.225C309.396 196.316 309.51 191.629 306.586 188.928L270.439 153.738C267.514 151.037 267.629 146.349 270.316 143.44L305.279 106.244C307.967 103.335 312.657 103.474 315.581 106.175L352.676 141.642C355.601 144.343 360.475 148.846 363.399 151.548L400.741 185.444C403.665 188.146 404.174 192.81 401.487 195.719L370.59 233.076C368.227 236.286 368.113 240.973 371.037 243.675L404.69 278.956C407.316 281.981 407.202 286.668 404.839 289.877L371.474 327.951C368.786 330.86 369.296 335.524 372.22 338.226L414.954 374.108C417.878 376.81 418.062 381.173 415.375 384.083L377.127 424.834C374.439 427.743 370.075 427.905 367.15 425.203L327.947 384.195Z" fill="#1D4983"/>
<path d="M327.947 384.195C325.023 381.494 320.658 381.655 317.97 384.564L282.296 427.094C279.608 430.003 275.243 430.165 272.319 427.463L233.599 390.496C230.674 387.794 225.985 387.656 223.297 390.565L187.956 426.214C185.269 429.123 180.28 429.307 177.356 426.606L138.794 393.379C135.869 390.677 130.697 386.498 127.772 383.797L87.8314 347.499C84.9069 344.797 84.7227 340.433 87.4102 337.524L124.49 298.689C127.178 295.78 131.867 295.918 134.792 298.62L173.486 334.964C176.41 337.665 180.775 337.504 183.462 334.595L216.204 296.544C218.891 293.635 218.681 288.648 215.756 285.946L183.052 250.942C180.426 247.917 179.917 243.253 182.604 240.344L215.267 200.423C217.629 197.214 221.994 197.052 224.919 199.754L263.235 234.551C266.159 237.252 270.823 236.768 273.835 234.159L306.708 199.225C309.396 196.316 309.51 191.629 306.586 188.928L270.439 153.738C267.514 151.037 267.629 146.349 270.316 143.44L305.279 106.244C307.967 103.335 312.657 103.474 315.581 106.175L352.676 141.642C355.601 144.343 360.475 148.846 363.399 151.548L400.741 185.444C403.665 188.146 404.174 192.81 401.487 195.719L370.59 233.076C368.227 236.286 368.113 240.973 371.037 243.675L404.69 278.956C407.316 281.981 407.202 286.668 404.839 289.877L371.474 327.951C368.786 330.86 369.296 335.524 372.22 338.226L414.954 374.108C417.878 376.81 418.062 381.173 415.375 384.083L377.127 424.834C374.439 427.743 370.075 427.905 367.15 425.203L327.947 384.195Z" fill="url(#paint1_linear)"/>
</g>
</g>
<g opacity="0.3" clip-path="url(#clip1)">
<path d="M615.99 805.778C618.914 808.48 623.604 808.619 626.292 805.709L661.606 769.437C664.294 766.528 669.282 766.343 672.207 769.045L712.666 802.826C715.59 805.527 715.774 809.891 713.087 812.801L676.929 851.289C674.242 854.199 674.426 858.563 677.35 861.264L717.265 896.938C720.189 899.64 720.373 904.004 717.361 906.613L679.526 942.354C676.513 944.963 671.525 945.148 668.601 942.446L630.662 909.196C627.738 906.495 623.074 906.979 620.387 909.889L584.879 948.978C582.191 951.887 577.827 952.049 574.902 949.347L536.56 913.927C533.635 911.225 533.126 906.561 535.813 903.652L569.503 865.879C572.191 862.969 571.98 857.982 569.056 855.281L534.78 820.022C531.855 817.32 531.644 812.333 534.332 809.424L567.073 771.374C569.761 768.464 574.126 768.303 577.05 771.004L615.99 805.778Z" fill="#1D4983"/>
<path d="M351.127 1092.49C354.051 1095.19 358.741 1095.33 361.428 1092.42L396.743 1056.15C399.431 1053.24 404.419 1053.06 407.343 1055.76L447.802 1089.54C450.727 1092.24 450.911 1096.6 448.224 1099.51L412.066 1138C409.378 1140.91 409.563 1145.28 412.487 1147.98L452.402 1183.65C455.326 1186.35 455.51 1190.72 452.498 1193.33L414.663 1229.07C411.65 1231.68 406.662 1231.86 403.737 1229.16L365.799 1195.91C362.874 1193.21 358.211 1193.69 355.524 1196.6L320.016 1235.69C317.328 1238.6 312.963 1238.76 310.039 1236.06L271.696 1200.64C268.772 1197.94 268.263 1193.27 270.95 1190.37L304.64 1152.59C307.328 1149.68 307.117 1144.7 304.193 1141.99L269.916 1106.74C266.992 1104.03 266.781 1099.05 269.469 1096.14L302.21 1058.09C304.898 1055.18 309.263 1055.02 312.187 1057.72L351.127 1092.49Z" fill="#1D4983"/>
<path d="M577.427 1046.35C580.351 1049.05 584.716 1048.89 587.403 1045.98L623.078 1003.45C625.766 1000.54 630.131 1000.38 633.055 1003.08L671.775 1040.05C674.7 1042.75 679.389 1042.89 682.077 1039.98L716.469 1004.05C719.157 1001.14 724.145 1000.96 727.07 1003.66L765.93 1036.56C768.855 1039.26 774.027 1043.44 776.952 1046.14L816.269 1082.46C819.194 1085.17 819.378 1089.53 816.69 1092.44L779.61 1131.27C776.923 1134.18 772.233 1134.05 769.309 1131.34L730.615 1095C727.691 1092.3 723.326 1092.46 720.638 1095.37L687.923 1134.04C685.236 1136.95 685.446 1141.94 688.371 1144.64L721.075 1179.65C723.701 1182.67 724.21 1187.33 721.522 1190.24L689.185 1230.46C686.822 1233.67 682.457 1233.83 679.533 1231.13L641.217 1196.34C638.292 1193.63 633.629 1194.12 630.617 1196.73L597.743 1231.66C595.056 1234.57 594.942 1239.26 597.866 1241.96L633.714 1277.47C636.639 1280.17 636.525 1284.86 633.837 1287.77L598.874 1324.97C596.186 1327.88 591.496 1327.74 588.572 1325.04L551.477 1289.57C548.552 1286.87 543.678 1282.36 540.754 1279.66L503.412 1245.77C500.488 1243.07 499.979 1238.4 502.666 1235.49L533.563 1198.13C535.926 1194.92 536.04 1190.24 533.116 1187.54L500.412 1152.53C497.786 1149.51 497.9 1144.82 500.263 1141.61L533.628 1103.54C536.315 1100.63 535.806 1095.96 532.882 1093.26L490.148 1057.38C487.224 1054.68 487.039 1050.31 489.727 1047.41L528.598 1006.63C531.286 1003.72 535.651 1003.56 538.575 1006.26L577.427 1046.35Z" fill="#89C1D8"/>
<path d="M405.947 971.195C403.023 968.494 398.658 968.655 395.97 971.564L360.296 1014.09C357.608 1017 353.243 1017.16 350.319 1014.46L311.599 977.496C308.674 974.794 303.985 974.656 301.297 977.565L265.956 1013.21C263.269 1016.12 258.28 1016.31 255.356 1013.61L216.794 980.379C213.869 977.677 208.697 973.498 205.772 970.797L165.831 934.499C162.907 931.797 162.723 927.433 165.41 924.524L202.49 885.689C205.178 882.78 209.867 882.918 212.792 885.62L251.486 921.964C254.41 924.665 258.775 924.504 261.462 921.595L294.204 883.544C296.891 880.635 296.681 875.648 293.756 872.946L261.052 837.942C258.426 834.917 257.917 830.253 260.604 827.344L293.267 787.423C295.629 784.214 299.994 784.052 302.919 786.754L341.235 821.551C344.159 824.252 348.823 823.768 351.835 821.159L384.708 786.225C387.396 783.316 387.51 778.629 384.586 775.928L348.439 740.738C345.514 738.037 345.629 733.349 348.316 730.44L383.279 693.244C385.967 690.335 390.657 690.474 393.581 693.175L430.676 728.642C433.601 731.343 438.475 735.846 441.399 738.548L478.741 772.444C481.665 775.146 482.174 779.81 479.487 782.719L448.59 820.076C446.227 823.286 446.113 827.973 449.037 830.675L482.69 865.956C485.316 868.981 485.202 873.668 482.839 876.877L449.474 914.951C446.786 917.86 447.296 922.524 450.22 925.226L492.954 961.108C495.878 963.81 496.062 968.173 493.375 971.083L455.127 1011.83C452.439 1014.74 448.075 1014.9 445.15 1012.2L405.947 971.195Z" fill="#89C1D8"/>
</g>
<defs>
<linearGradient id="paint0_linear" x1="478.234" y1="250" x2="478.234" y2="346" gradientUnits="userSpaceOnUse">
<stop stop-color="white"/>
<stop offset="1" stop-color="white" stop-opacity="0"/>
</linearGradient>
<linearGradient id="paint1_linear" x1="197.04" y1="291.478" x2="211.439" y2="433.582" gradientUnits="userSpaceOnUse">
<stop stop-color="white"/>
<stop offset="1" stop-color="white" stop-opacity="0"/>
</linearGradient>
<clipPath id="clip0">
<rect width="591" height="591" fill="white" transform="matrix(-0.734543 -0.678562 -0.678562 0.734543 835.146 401.03)"/>
</clipPath>
<clipPath id="clip1">
<rect width="591" height="591" fill="white" transform="matrix(-0.734543 -0.678562 -0.678562 0.734543 913.146 988.03)"/>
</clipPath>
</defs>
</svg>
