<svg width="910" height="1423" viewBox="0 0 910 1423" fill="none" xmlns="http://www.w3.org/2000/svg">
<g clip-path="url(#clip0)">
<path d="M371.156 218.778C368.232 221.48 363.542 221.619 360.854 218.709L325.54 182.437C322.852 179.528 317.864 179.343 314.939 182.045L274.48 215.826C271.556 218.527 271.372 222.891 274.059 225.801L310.217 264.289C312.904 267.199 312.72 271.563 309.796 274.264L269.881 309.938C266.957 312.64 266.773 317.004 269.785 319.613L307.62 355.354C310.633 357.963 315.621 358.148 318.545 355.446L356.484 322.196C359.408 319.495 364.072 319.979 366.759 322.889L402.267 361.978C404.955 364.887 409.319 365.049 412.244 362.347L450.586 326.927C453.511 324.225 454.02 319.561 451.333 316.652L417.643 278.879C414.955 275.969 415.166 270.982 418.09 268.281L452.366 233.022C455.291 230.32 455.502 225.333 452.814 222.424L420.073 184.374C417.385 181.464 413.02 181.303 410.096 184.004L371.156 218.778Z" fill="#1D4983"/>
<path opacity="0.34" d="M636.018 505.492C633.094 508.193 628.404 508.332 625.717 505.423L590.402 469.15C587.714 466.241 582.726 466.057 579.802 468.758L539.343 502.539C536.418 505.241 536.234 509.605 538.921 512.514L575.079 551.003C577.767 553.912 577.582 558.276 574.658 560.978L534.744 596.652C531.819 599.353 531.635 603.717 534.647 606.326L572.482 642.068C575.495 644.677 580.483 644.861 583.408 642.16L621.346 608.91C624.271 606.208 628.934 606.693 631.621 609.602L667.129 648.691C669.817 651.601 674.182 651.762 677.106 649.06L715.449 613.64C718.373 610.939 718.882 606.275 716.195 603.365L682.505 565.592C679.817 562.683 680.028 557.696 682.952 554.994L717.229 519.736C720.153 517.034 720.364 512.047 717.676 509.137L684.935 471.087C682.247 468.178 677.882 468.016 674.958 470.718L636.018 505.492Z" fill="#1D4983"/>
<path opacity="0.5" d="M409.719 459.346C406.794 462.047 402.429 461.886 399.742 458.977L364.067 416.447C361.38 413.538 357.015 413.376 354.09 416.078L315.37 453.045C312.446 455.747 307.756 455.885 305.069 452.976L270.676 417.05C267.989 414.141 263 413.956 260.076 416.658L221.215 449.562C218.291 452.263 213.118 456.443 210.194 459.144L170.876 495.465C167.952 498.166 167.768 502.53 170.455 505.44L207.535 544.275C210.223 547.184 214.912 547.045 217.837 544.344L256.531 508C259.455 505.298 263.82 505.46 266.507 508.369L299.222 547.043C301.91 549.952 301.699 554.939 298.775 557.641L266.071 592.645C263.445 595.67 262.936 600.334 265.623 603.243L297.961 643.464C300.323 646.673 304.688 646.835 307.612 644.133L345.929 609.337C348.853 606.635 353.516 607.12 356.529 609.729L389.402 644.662C392.09 647.571 392.204 652.258 389.279 654.96L353.431 690.472C350.507 693.174 350.621 697.861 353.308 700.77L388.272 737.966C390.959 740.876 395.649 740.737 398.574 738.035L435.669 702.569C438.593 699.867 443.467 695.365 446.392 692.663L483.733 658.767C486.658 656.065 487.167 651.401 484.479 648.492L453.582 611.134C451.22 607.925 451.105 603.238 454.03 600.536L486.734 565.532C489.36 562.507 489.245 557.82 486.883 554.61L453.518 516.537C450.83 513.628 451.34 508.964 454.264 506.262L496.998 470.38C499.922 467.678 500.106 463.314 497.419 460.405L458.547 419.631C455.86 416.721 451.495 416.56 448.57 419.261L409.719 459.346Z" fill="#89C1D8"/>
<g opacity="0.4">
<path d="M581.198 384.195C584.123 381.494 588.488 381.655 591.175 384.564L626.85 427.094C629.537 430.003 633.902 430.165 636.827 427.463L675.547 390.496C678.471 387.794 683.161 387.656 685.848 390.565L721.189 426.214C723.877 429.123 728.865 429.307 731.79 426.606L770.352 393.379C773.276 390.677 778.449 386.498 781.373 383.797L821.314 347.499C824.239 344.797 824.423 340.433 821.735 337.524L784.655 298.689C781.968 295.78 777.278 295.918 774.354 298.62L735.66 334.964C732.736 337.665 728.371 337.504 725.683 334.595L692.942 296.544C690.254 293.635 690.465 288.648 693.389 285.946L726.094 250.942C728.719 247.917 729.229 243.253 726.541 240.344L693.879 200.423C691.516 197.214 687.151 197.052 684.227 199.754L645.911 234.551C642.986 237.252 638.323 236.768 635.31 234.159L602.437 199.225C599.75 196.316 599.636 191.629 602.56 188.928L638.707 153.738C641.631 151.037 641.517 146.349 638.83 143.44L603.866 106.244C601.179 103.335 596.489 103.474 593.564 106.175L556.469 141.642C553.545 144.343 548.671 148.846 545.746 151.548L508.405 185.444C505.48 188.146 504.971 192.81 507.659 195.719L538.556 233.076C540.918 236.286 541.033 240.973 538.108 243.675L504.455 278.956C501.83 281.981 501.944 286.668 504.307 289.877L537.672 327.951C540.359 330.86 539.85 335.524 536.925 338.226L494.192 374.108C491.267 376.81 491.083 381.173 493.771 384.083L532.019 424.834C534.706 427.743 539.071 427.905 541.995 425.203L581.198 384.195Z" fill="#89C1D8"/>
<path d="M581.198 384.195C584.123 381.494 588.488 381.655 591.175 384.564L626.85 427.094C629.537 430.003 633.902 430.165 636.827 427.463L675.547 390.496C678.471 387.794 683.161 387.656 685.848 390.565L721.189 426.214C723.877 429.123 728.865 429.307 731.79 426.606L770.352 393.379C773.276 390.677 778.449 386.498 781.373 383.797L821.314 347.499C824.239 344.797 824.423 340.433 821.735 337.524L784.655 298.689C781.968 295.78 777.278 295.918 774.354 298.62L735.66 334.964C732.736 337.665 728.371 337.504 725.683 334.595L692.942 296.544C690.254 293.635 690.465 288.648 693.389 285.946L726.094 250.942C728.719 247.917 729.229 243.253 726.541 240.344L693.879 200.423C691.516 197.214 687.151 197.052 684.227 199.754L645.911 234.551C642.986 237.252 638.323 236.768 635.31 234.159L602.437 199.225C599.75 196.316 599.636 191.629 602.56 188.928L638.707 153.738C641.631 151.037 641.517 146.349 638.83 143.44L603.866 106.244C601.179 103.335 596.489 103.474 593.564 106.175L556.469 141.642C553.545 144.343 548.671 148.846 545.746 151.548L508.405 185.444C505.48 188.146 504.971 192.81 507.659 195.719L538.556 233.076C540.918 236.286 541.033 240.973 538.108 243.675L504.455 278.956C501.83 281.981 501.944 286.668 504.307 289.877L537.672 327.951C540.359 330.86 539.85 335.524 536.925 338.226L494.192 374.108C491.267 376.81 491.083 381.173 493.771 384.083L532.019 424.834C534.706 427.743 539.071 427.905 541.995 425.203L581.198 384.195Z" fill="url(#paint0_linear)"/>
</g>
</g>
<g clip-path="url(#clip1)">
<path opacity="0.5" d="M297.156 805.778C294.232 808.48 289.542 808.618 286.854 805.709L251.54 769.437C248.852 766.528 243.864 766.343 240.939 769.045L200.48 802.826C197.556 805.527 197.372 809.891 200.059 812.8L236.217 851.289C238.904 854.198 238.72 858.562 235.796 861.264L195.881 896.938C192.957 899.64 192.773 904.004 195.785 906.613L233.62 942.354C236.633 944.963 241.621 945.148 244.545 942.446L282.484 909.196C285.408 906.495 290.072 906.979 292.759 909.888L328.267 948.978C330.955 951.887 335.319 952.048 338.244 949.347L376.586 913.927C379.511 911.225 380.02 906.561 377.333 903.652L343.643 865.878C340.955 862.969 341.166 857.982 344.09 855.28L378.366 820.022C381.291 817.32 381.502 812.333 378.814 809.424L346.073 771.373C343.385 768.464 339.02 768.303 336.096 771.004L297.156 805.778Z" fill="#1D4983"/>
<path opacity="0.5" d="M562.018 1092.49C559.094 1095.19 554.404 1095.33 551.717 1092.42L516.402 1056.15C513.714 1053.24 508.726 1053.06 505.802 1055.76L465.343 1089.54C462.418 1092.24 462.234 1096.6 464.921 1099.51L501.079 1138C503.767 1140.91 503.582 1145.28 500.658 1147.98L460.744 1183.65C457.819 1186.35 457.635 1190.72 460.647 1193.33L498.482 1229.07C501.495 1231.68 506.483 1231.86 509.408 1229.16L547.346 1195.91C550.271 1193.21 554.934 1193.69 557.621 1196.6L593.129 1235.69C595.817 1238.6 600.182 1238.76 603.106 1236.06L641.449 1200.64C644.373 1197.94 644.882 1193.27 642.195 1190.37L608.505 1152.59C605.817 1149.68 606.028 1144.7 608.952 1141.99L643.229 1106.74C646.153 1104.03 646.364 1099.05 643.676 1096.14L610.935 1058.09C608.247 1055.18 603.882 1055.02 600.958 1057.72L562.018 1092.49Z" fill="#1D4983"/>
<path d="M335.719 1046.35C332.794 1049.05 328.429 1048.89 325.742 1045.98L290.067 1003.45C287.38 1000.54 283.015 1000.38 280.09 1003.08L241.37 1040.05C238.446 1042.75 233.756 1042.89 231.069 1039.98L196.676 1004.05C193.989 1001.14 189 1000.96 186.076 1003.66L147.215 1036.56C144.291 1039.26 139.118 1043.44 136.194 1046.14L96.8764 1082.47C93.952 1085.17 93.7677 1089.53 96.4552 1092.44L133.535 1131.27C136.223 1134.18 140.912 1134.05 143.837 1131.34L182.531 1095C185.455 1092.3 189.82 1092.46 192.507 1095.37L225.222 1134.04C227.91 1136.95 227.699 1141.94 224.775 1144.64L192.071 1179.65C189.445 1182.67 188.936 1187.33 191.623 1190.24L223.961 1230.46C226.323 1233.67 230.688 1233.84 233.612 1231.13L271.929 1196.34C274.853 1193.64 279.516 1194.12 282.529 1196.73L315.402 1231.66C318.09 1234.57 318.204 1239.26 315.279 1241.96L279.431 1277.47C276.507 1280.17 276.621 1284.86 279.308 1287.77L314.272 1324.97C316.959 1327.88 321.649 1327.74 324.574 1325.04L361.669 1289.57C364.593 1286.87 369.467 1282.36 372.392 1279.66L409.733 1245.77C412.658 1243.07 413.167 1238.4 410.479 1235.49L379.582 1198.13C377.22 1194.92 377.105 1190.24 380.03 1187.54L412.734 1152.53C415.36 1149.51 415.245 1144.82 412.883 1141.61L379.518 1103.54C376.83 1100.63 377.34 1095.96 380.264 1093.26L422.998 1057.38C425.922 1054.68 426.106 1050.31 423.419 1047.41L384.547 1006.63C381.86 1003.72 377.495 1003.56 374.57 1006.26L335.719 1046.35Z" fill="#89C1D8"/>
<path d="M507.198 971.195C510.123 968.494 514.488 968.655 517.175 971.564L552.85 1014.09C555.537 1017 559.902 1017.16 562.827 1014.46L601.547 977.496C604.471 974.794 609.161 974.656 611.848 977.565L647.189 1013.21C649.877 1016.12 654.865 1016.31 657.79 1013.61L696.352 980.379C699.276 977.677 704.449 973.498 707.373 970.797L747.314 934.499C750.239 931.797 750.423 927.433 747.735 924.524L710.655 885.689C707.968 882.78 703.278 882.918 700.354 885.62L661.66 921.964C658.736 924.665 654.371 924.504 651.683 921.595L618.942 883.544C616.254 880.635 616.465 875.648 619.389 872.946L652.094 837.942C654.719 834.917 655.229 830.253 652.541 827.344L619.879 787.423C617.516 784.214 613.151 784.052 610.227 786.754L571.911 821.551C568.986 824.252 564.323 823.768 561.31 821.159L528.437 786.225C525.75 783.316 525.636 778.629 528.56 775.928L564.707 740.738C567.631 738.037 567.517 733.349 564.83 730.44L529.866 693.244C527.179 690.335 522.489 690.474 519.564 693.175L482.469 728.642C479.545 731.343 474.671 735.846 471.746 738.548L434.405 772.444C431.48 775.146 430.971 779.81 433.659 782.719L464.556 820.076C466.918 823.286 467.033 827.973 464.108 830.675L430.455 865.956C427.83 868.981 427.944 873.668 430.307 876.877L463.672 914.951C466.359 917.86 465.85 922.524 462.925 925.226L420.192 961.108C417.267 963.81 417.083 968.173 419.771 971.083L458.019 1011.83C460.706 1014.74 465.071 1014.9 467.995 1012.2L507.198 971.195Z" fill="#89C1D8"/>
</g>
<defs>
<linearGradient id="paint0_linear" x1="501.283" y1="259" x2="501.283" y2="337" gradientUnits="userSpaceOnUse">
<stop stop-color="white"/>
<stop offset="1" stop-color="white" stop-opacity="0"/>
</linearGradient>
<clipPath id="clip0">
<rect width="591" height="591" fill="white" transform="translate(74 401.03) rotate(-42.7314)"/>
</clipPath>
<clipPath id="clip1">
<rect width="591" height="591" fill="white" transform="translate(0 988.03) rotate(-42.7314)"/>
</clipPath>
</defs>
</svg>
